<svg width="500" height="132" viewBox="0 0 500 132" fill="none" xmlns="http://www.w3.org/2000/svg">
<path d="M165 76.1316H173.75C174.03 78.4413 175.219 80.3077 177.319 81.7311C179.419 83.1311 182.02 83.8311 185.123 83.8311C188.156 83.8311 190.63 83.1544 192.543 81.8009C194.479 80.4481 195.447 78.7214 195.447 76.6213C195.447 74.8014 194.747 73.3315 193.347 72.2116C191.948 71.0684 189.661 70.1236 186.488 69.377L179.944 67.8372C175.301 66.7639 171.848 65.0957 169.585 62.8326C167.345 60.5695 166.225 57.6297 166.225 54.0138C166.225 49.5575 167.975 45.941 171.474 43.1648C174.975 40.3881 179.489 39 185.018 39C190.571 39 195.039 40.3767 198.422 43.1296C201.829 45.8591 203.59 49.4524 203.707 53.9087H195.097C194.887 51.5524 193.872 49.7092 192.053 48.3791C190.233 47.0256 187.865 46.3495 184.948 46.3495C182.102 46.3495 179.792 46.991 178.019 48.2739C176.269 49.5575 175.394 51.249 175.394 53.3484C175.394 55.0286 176.071 56.3933 177.424 57.4433C178.801 58.4934 181.04 59.3917 184.143 60.1383L189.953 61.4678C195.062 62.6343 198.772 64.3377 201.082 66.5775C203.392 68.8173 204.546 71.815 204.546 75.5713C204.546 80.3543 202.75 84.1572 199.157 86.9805C195.587 89.78 190.746 91.18 184.633 91.18C178.801 91.18 174.111 89.8385 170.565 87.1555C167.041 84.4493 165.187 80.7742 165 76.1316ZM212.911 44.5642H221.625V53.2439H228.624V59.9633H221.625V79.2464C221.625 80.7629 221.987 81.8828 222.71 82.6061C223.433 83.3294 224.565 83.6907 226.105 83.6907C227.131 83.6907 227.96 83.6328 228.589 83.5157V90.1652C227.539 90.3988 226.035 90.5152 224.075 90.5152C220.062 90.5152 217.192 89.7453 215.466 88.2055C213.762 86.6658 212.911 84.0873 212.911 80.4714V59.9633H207.591V53.2439H212.911V44.5642ZM247.627 84.3555C250.124 84.3555 252.224 83.6208 253.927 82.1509C255.654 80.6577 256.517 78.8032 256.517 76.5867V73.752L247.943 74.2764C245.843 74.4168 244.21 74.9418 243.043 75.8515C241.9 76.7384 241.328 77.9162 241.328 79.3861C241.328 80.9026 241.9 82.1157 243.043 83.026C244.21 83.9123 245.738 84.3555 247.627 84.3555ZM245.003 90.9351C241.386 90.9351 238.412 89.897 236.078 87.8203C233.769 85.7442 232.614 83.0493 232.614 79.7362C232.614 76.4463 233.827 73.8452 236.253 71.9321C238.704 70.019 242.192 68.9224 246.718 68.6423L256.517 68.0821V65.4224C256.517 63.486 255.899 61.9815 254.662 60.9082C253.448 59.8349 251.757 59.2979 249.587 59.2979C247.558 59.2979 245.901 59.753 244.618 60.6627C243.335 61.5729 242.553 62.8093 242.273 64.3724H234.189C234.376 60.8496 235.88 57.9916 238.704 55.7984C241.55 53.5819 245.294 52.474 249.937 52.474C254.534 52.474 258.208 53.5939 260.961 55.8337C263.738 58.0735 265.126 61.0599 265.126 64.7929V90.3402H256.727V84.426H256.552C255.502 86.4089 253.916 87.9953 251.792 89.1851C249.669 90.3522 247.406 90.9351 245.003 90.9351ZM292.914 90.9351C290.23 90.9351 287.862 90.3283 285.809 89.1152C283.779 87.9021 282.216 86.1987 281.119 84.0061H280.944V90.3402H272.406V39.8399H281.119V59.6133H281.329C282.379 57.42 283.919 55.7053 285.949 54.4683C287.979 53.2319 290.301 52.6138 292.914 52.6138C297.603 52.6138 301.325 54.3405 304.077 57.7933C306.83 61.2229 308.207 65.8889 308.207 71.7918C308.207 77.718 306.83 82.3958 304.077 85.8254C301.348 89.2323 297.626 90.9351 292.914 90.9351ZM290.219 59.7883C287.512 59.7883 285.307 60.8962 283.604 63.1127C281.924 65.3059 281.085 68.1991 281.085 71.7918C281.085 75.4083 281.924 78.3128 283.604 80.506C285.307 82.6992 287.512 83.7958 290.219 83.7958C293.018 83.7958 295.223 82.7225 296.833 80.5759C298.466 78.4066 299.283 75.4782 299.283 71.7918C299.283 68.1054 298.466 65.1894 296.833 63.0428C295.2 60.8729 292.995 59.7883 290.219 59.7883ZM314.121 90.3402V39.8399H322.835V90.3402H314.121ZM346.248 59.228C343.822 59.228 341.792 60.0678 340.159 61.7479C338.549 63.4042 337.651 65.5395 337.464 68.1525H354.787C354.694 65.5162 353.866 63.3695 352.303 61.7127C350.74 60.0564 348.722 59.228 346.248 59.228ZM354.823 79.2464H362.977C362.417 82.7691 360.632 85.6271 357.622 87.8203C354.612 89.9902 350.926 91.0749 346.564 91.0749C341.011 91.0749 336.648 89.372 333.475 85.9658C330.301 82.5362 328.715 77.8583 328.715 71.9321C328.715 66.0525 330.29 61.3394 333.44 57.7933C336.613 54.2467 340.871 52.474 346.214 52.474C351.463 52.474 355.628 54.1655 358.707 57.5485C361.787 60.9082 363.327 65.411 363.327 71.0571V73.8918H337.394V74.4168C337.394 77.4032 338.234 79.806 339.914 81.6259C341.617 83.4458 343.892 84.3555 346.739 84.3555C348.745 84.3555 350.472 83.901 351.918 82.9907C353.388 82.0578 354.356 80.8095 354.823 79.2464ZM405.358 90.3402H384.185V39.8399H405.148C409.744 39.8399 413.407 40.983 416.137 43.2693C418.866 45.5563 420.232 48.6126 420.232 52.4388C420.232 55.145 419.345 57.5485 417.572 59.6479C415.799 61.7479 413.617 63.0076 411.027 63.4275V63.7076C414.481 64.0343 417.28 65.3292 419.427 67.5923C421.597 69.8554 422.681 72.6554 422.681 75.9918C422.681 80.4481 421.141 83.9589 418.062 86.5254C414.982 89.0686 410.748 90.3402 405.358 90.3402ZM393.214 46.8745V61.1178H401.473C404.623 61.1178 407.049 60.4883 408.753 59.228C410.456 57.9451 411.307 56.1252 411.307 53.7689C411.307 51.5757 410.573 49.8842 409.103 48.6938C407.656 47.4808 405.579 46.8745 402.873 46.8745H393.214ZM393.214 83.3061H403.293C406.606 83.3061 409.126 82.6294 410.852 81.2759C412.602 79.9231 413.477 77.9515 413.477 75.3617C413.477 72.7952 412.579 70.8469 410.782 69.5173C409.01 68.1872 406.385 67.5224 402.908 67.5224H393.214V83.3061ZM457.748 85.9305C454.505 89.3601 450.142 91.0749 444.659 91.0749C439.176 91.0749 434.814 89.3601 431.571 85.9305C428.327 82.4777 426.706 77.7645 426.706 71.7918C426.706 65.8423 428.339 61.1411 431.606 57.6882C434.872 54.2121 439.223 52.474 444.659 52.474C450.119 52.474 454.47 54.2121 457.713 57.6882C460.979 61.1411 462.613 65.8423 462.613 71.7918C462.613 77.7645 460.991 82.4777 457.748 85.9305ZM438.01 80.9259C439.643 83.0958 441.86 84.1811 444.659 84.1811C447.459 84.1811 449.675 83.0958 451.309 80.9259C452.942 78.756 453.758 75.7117 453.758 71.7918C453.758 67.8957 452.942 64.8627 451.309 62.6928C449.675 60.4996 447.459 59.403 444.659 59.403C441.883 59.403 439.667 60.4996 438.01 62.6928C436.377 64.8627 435.56 67.8957 435.56 71.7918C435.56 75.7117 436.377 78.756 438.01 80.9259ZM481.861 77.0412H481.686L473.987 90.3402H464.712L476.681 71.827L464.817 53.2439H474.616L482.106 66.2628H482.281L489.665 53.2439H499.219L487.285 71.5821L499.079 90.3402H489.56L481.861 77.0412Z" fill="black"/>
<g clip-path="url(#clip0_12_71)">
<path d="M132 0H0V132H132V0Z" fill="url(#paint0_linear_12_71)"/>
<path d="M44.22 28.38H32.78C30.35 28.38 28.38 30.35 28.38 32.78V44.22C28.38 46.6501 30.35 48.62 32.78 48.62H44.22C46.6501 48.62 48.62 46.6501 48.62 44.22V32.78C48.62 30.35 46.6501 28.38 44.22 28.38Z" fill="white" fill-opacity="0.4"/>
<path d="M44.22 55.88H32.78C30.35 55.88 28.38 57.85 28.38 60.28V71.72C28.38 74.1501 30.35 76.12 32.78 76.12H44.22C46.6501 76.12 48.62 74.1501 48.62 71.72V60.28C48.62 57.85 46.6501 55.88 44.22 55.88Z" fill="white" fill-opacity="0.7"/>
<path d="M44.22 83.38H32.78C30.35 83.38 28.38 85.35 28.38 87.78V99.22C28.38 101.65 30.35 103.62 32.78 103.62H44.22C46.6501 103.62 48.62 101.65 48.62 99.22V87.78C48.62 85.35 46.6501 83.38 44.22 83.38Z" fill="white"/>
<path d="M71.72 28.38H60.28C57.85 28.38 55.88 30.35 55.88 32.78V44.22C55.88 46.6501 57.85 48.62 60.28 48.62H71.72C74.1501 48.62 76.12 46.6501 76.12 44.22V32.78C76.12 30.35 74.1501 28.38 71.72 28.38Z" fill="white" fill-opacity="0.7"/>
<path d="M71.72 55.88H60.28C57.85 55.88 55.88 57.85 55.88 60.28V71.72C55.88 74.1501 57.85 76.12 60.28 76.12H71.72C74.1501 76.12 76.12 74.1501 76.12 71.72V60.28C76.12 57.85 74.1501 55.88 71.72 55.88Z" fill="white"/>
<path d="M71.72 83.38H60.28C57.85 83.38 55.88 85.35 55.88 87.78V99.22C55.88 101.65 57.85 103.62 60.28 103.62H71.72C74.1501 103.62 76.12 101.65 76.12 99.22V87.78C76.12 85.35 74.1501 83.38 71.72 83.38Z" fill="white"/>
<path d="M99.22 28.38H87.78C85.35 28.38 83.38 30.35 83.38 32.78V44.22C83.38 46.6501 85.35 48.62 87.78 48.62H99.22C101.65 48.62 103.62 46.6501 103.62 44.22V32.78C103.62 30.35 101.65 28.38 99.22 28.38Z" fill="white"/>
<path d="M99.22 55.88H87.78C85.35 55.88 83.38 57.85 83.38 60.28V71.72C83.38 74.1501 85.35 76.12 87.78 76.12H99.22C101.65 76.12 103.62 74.1501 103.62 71.72V60.28C103.62 57.85 101.65 55.88 99.22 55.88Z" fill="white"/>
<path d="M99.22 83.38H87.78C85.35 83.38 83.38 85.35 83.38 87.78V99.22C83.38 101.65 85.35 103.62 87.78 103.62H99.22C101.65 103.62 103.62 101.65 103.62 99.22V87.78C103.62 85.35 101.65 83.38 99.22 83.38Z" fill="white"/>
</g>
<defs>
<linearGradient id="paint0_linear_12_71" x1="66" y1="0" x2="66" y2="132" gradientUnits="userSpaceOnUse">
<stop stop-color="#2D74FF"/>
<stop offset="1" stop-color="#62CBF8"/>
</linearGradient>
<clipPath id="clip0_12_71">
<rect width="132" height="132" rx="22" fill="white"/>
</clipPath>
</defs>
</svg>
