<svg width="250" height="250" viewBox="0 0 250 250" fill="none" xmlns="http://www.w3.org/2000/svg">
<path d="M189.55 25H60.1095C36.3101 25 21.2254 51.788 33.1989 73.4437L113.085 217.925C118.298 227.358 131.362 227.358 136.575 217.925L216.477 73.4437C228.434 51.8226 213.349 25 189.566 25H189.55ZM113.02 174.597L95.6219 139.463L53.6428 61.1202C50.8735 56.1059 54.294 49.6803 60.0933 49.6803H113.003V174.614L113.02 174.597ZM195.984 61.1033L154.021 139.48L136.623 174.597V49.6633H189.534C195.333 49.6633 198.753 56.0889 195.984 61.1033Z" fill="url(#paint0_linear_23_70)"/>
<defs>
<linearGradient id="paint0_linear_23_70" x1="124.833" y1="25" x2="124.833" y2="225" gradientUnits="userSpaceOnUse">
<stop stop-color="#2D74FF"/>
<stop offset="1" stop-color="#62CBF8"/>
</linearGradient>
</defs>
</svg>
