<svg width="250" height="250" viewBox="0 0 250 250" fill="none" xmlns="http://www.w3.org/2000/svg">
<path d="M162.434 162.527H153.873C153.177 159.843 152.105 157.272 150.687 154.889L156.759 148.817C157.475 148.125 158.046 147.298 158.439 146.384C158.832 145.469 159.039 144.486 159.047 143.49C159.056 142.495 158.866 141.508 158.489 140.587C158.113 139.665 157.556 138.828 156.852 138.124C156.148 137.421 155.311 136.864 154.39 136.487C153.469 136.11 152.482 135.921 151.486 135.929C150.491 135.938 149.507 136.145 148.593 136.538C147.678 136.93 146.851 137.501 146.16 138.217L140.088 144.289C137.705 142.872 135.133 141.799 132.449 141.103V132.543C132.449 130.555 131.66 128.648 130.254 127.242C128.848 125.837 126.941 125.047 124.953 125.047C122.965 125.047 121.058 125.837 119.653 127.242C118.247 128.648 117.457 130.555 117.457 132.543V141.103C114.773 141.799 112.201 142.872 109.819 144.289L103.747 138.217C103.055 137.501 102.228 136.93 101.314 136.538C100.399 136.145 99.4153 135.938 98.42 135.929C97.4247 135.921 96.4376 136.11 95.5163 136.487C94.5951 136.864 93.7581 137.421 93.0543 138.124C92.3505 138.828 91.7939 139.665 91.417 140.587C91.04 141.508 90.8504 142.495 90.859 143.49C90.8677 144.486 91.0745 145.469 91.4673 146.384C91.8602 147.298 92.4313 148.125 93.1472 148.817L99.2191 154.889C97.8016 157.272 96.729 159.843 96.0332 162.527H87.4727C85.4846 162.527 83.5779 163.317 82.1721 164.723C80.7663 166.129 79.9766 168.035 79.9766 170.023C79.9766 172.011 80.7663 173.918 82.1721 175.324C83.5779 176.73 85.4846 177.519 87.4727 177.519H96.0332C96.729 180.203 97.8016 182.775 99.2191 185.158L93.1472 191.23C92.4313 191.921 91.8602 192.749 91.4673 193.663C91.0745 194.578 90.8677 195.561 90.859 196.557C90.8504 197.552 91.04 198.539 91.417 199.46C91.7939 200.382 92.3505 201.218 93.0543 201.922C93.7581 202.626 94.5951 203.183 95.5163 203.56C96.4376 203.937 97.4247 204.126 98.42 204.118C99.4153 204.109 100.399 203.902 101.314 203.509C102.228 203.116 103.055 202.545 103.747 201.829L109.819 195.758C112.201 197.175 114.773 198.248 117.457 198.943V207.504C117.457 209.492 118.247 211.399 119.653 212.804C121.058 214.21 122.965 215 124.953 215C126.941 215 128.848 214.21 130.254 212.804C131.66 211.399 132.449 209.492 132.449 207.504V198.943C135.133 198.248 137.705 197.175 140.088 195.758L146.16 201.829C146.851 202.545 147.678 203.116 148.593 203.509C149.507 203.902 150.491 204.109 151.486 204.118C152.482 204.126 153.469 203.937 154.39 203.56C155.311 203.183 156.148 202.626 156.852 201.922C157.556 201.218 158.113 200.382 158.489 199.46C158.866 198.539 159.056 197.552 159.047 196.557C159.039 195.561 158.832 194.578 158.439 193.663C158.046 192.749 157.475 191.921 156.759 191.23L150.687 185.158C152.105 182.775 153.177 180.203 153.873 177.519H162.434C164.422 177.519 166.328 176.73 167.734 175.324C169.14 173.918 169.93 172.011 169.93 170.023C169.93 168.035 169.14 166.129 167.734 164.723C166.328 163.317 164.422 162.527 162.434 162.527ZM124.953 185.016C121.988 185.016 119.089 184.136 116.624 182.489C114.159 180.842 112.237 178.5 111.102 175.761C109.967 173.021 109.671 170.007 110.249 167.099C110.828 164.19 112.255 161.519 114.352 159.422C116.449 157.326 119.12 155.898 122.028 155.319C124.937 154.741 127.951 155.038 130.69 156.172C133.43 157.307 135.771 159.229 137.419 161.694C139.066 164.16 139.945 167.058 139.945 170.023C139.945 174 138.366 177.813 135.554 180.624C132.743 183.436 128.929 185.016 124.953 185.016Z" fill="url(#paint0_linear_24_119)"/>
<path d="M147.442 57.5814C147.459 53.4547 146.34 49.4028 144.208 45.8695C142.076 42.3362 139.013 39.4577 135.354 37.5493C131.695 35.6408 127.581 34.776 123.463 35.0494C119.346 35.3229 115.383 36.7242 112.008 39.0998C108.634 41.4754 105.978 44.7337 104.332 48.518C102.686 52.3022 102.113 56.4665 102.675 60.5547C103.238 64.6429 104.915 68.4975 107.522 71.6963C110.129 74.8951 113.567 77.3148 117.457 78.6905V102.558C117.457 104.546 118.247 106.453 119.653 107.859C121.059 109.264 122.965 110.054 124.953 110.054C126.942 110.054 128.848 109.264 130.254 107.859C131.66 106.453 132.45 104.546 132.45 102.558V78.6905C136.819 77.1456 140.605 74.2885 143.288 70.5099C145.972 66.7314 147.423 62.216 147.442 57.5814Z" fill="url(#paint1_linear_24_119)"/>
<path d="M82.0081 116.471L64.9845 99.4547V78.6905C69.986 76.9222 74.2013 73.4427 76.8855 68.867C79.5697 64.2913 80.5499 58.914 79.6528 53.6855C78.7557 48.457 76.0392 43.714 71.9833 40.2947C67.9274 36.8754 62.7933 35 57.4884 35C52.1835 35 47.0494 36.8754 42.9934 40.2947C38.9375 43.714 36.221 48.457 35.3239 53.6855C34.4268 58.914 35.407 64.2913 38.0912 68.867C40.7754 73.4427 44.9908 76.9222 49.9923 78.6905V102.558C49.9927 104.546 50.7827 106.452 52.1886 107.858L71.4086 127.078C72.1051 127.774 72.9318 128.326 73.8416 128.702C74.7514 129.079 75.7264 129.272 76.711 129.272C77.6956 129.272 78.6705 129.077 79.58 128.7C80.4896 128.323 81.3159 127.771 82.0119 127.074C82.7078 126.378 83.2598 125.551 83.6363 124.641C84.0128 123.731 84.2064 122.756 84.206 121.772C84.2057 120.787 84.0114 119.812 83.6343 118.903C83.2572 117.993 82.7046 117.167 82.0081 116.471Z" fill="url(#paint2_linear_24_119)"/>
<path d="M214.907 57.5814C214.924 53.4547 213.805 49.4028 211.673 45.8695C209.541 42.3362 206.478 39.4577 202.819 37.5493C199.16 35.6408 195.046 34.776 190.928 35.0494C186.811 35.3229 182.848 36.7242 179.473 39.0998C176.099 41.4754 173.443 44.7337 171.797 48.518C170.151 52.3022 169.578 56.4665 170.14 60.5547C170.703 64.6429 172.38 68.4975 174.987 71.6963C177.595 74.8951 181.032 77.3148 184.922 78.6904V99.4547L167.899 116.471C166.492 117.876 165.702 119.783 165.701 121.772C165.7 123.76 166.489 125.667 167.895 127.074C169.301 128.481 171.207 129.271 173.196 129.272C175.184 129.273 177.092 128.483 178.498 127.078L197.718 107.858C199.124 106.452 199.914 104.546 199.915 102.558V78.6904C204.284 77.1456 208.07 74.2885 210.753 70.5099C213.437 66.7314 214.888 62.216 214.907 57.5814Z" fill="url(#paint3_linear_24_119)"/>
<defs>
<linearGradient id="paint0_linear_24_119" x1="124.953" y1="125.047" x2="124.953" y2="215" gradientUnits="userSpaceOnUse">
<stop stop-color="#2D74FF"/>
<stop offset="1" stop-color="#62CBF8"/>
</linearGradient>
<linearGradient id="paint1_linear_24_119" x1="124.954" y1="35" x2="124.954" y2="110.054" gradientUnits="userSpaceOnUse">
<stop stop-color="#2D74FF"/>
<stop offset="1" stop-color="#62CBF8"/>
</linearGradient>
<linearGradient id="paint2_linear_24_119" x1="59.603" y1="35" x2="59.603" y2="129.272" gradientUnits="userSpaceOnUse">
<stop stop-color="#2D74FF"/>
<stop offset="1" stop-color="#62CBF8"/>
</linearGradient>
<linearGradient id="paint3_linear_24_119" x1="190.304" y1="35" x2="190.304" y2="129.272" gradientUnits="userSpaceOnUse">
<stop stop-color="#2D74FF"/>
<stop offset="1" stop-color="#62CBF8"/>
</linearGradient>
</defs>
</svg>
