<svg width="250" height="250" viewBox="0 0 250 250" fill="none" xmlns="http://www.w3.org/2000/svg">
<path d="M181.014 174.881H220.67" stroke="url(#paint0_linear_25_201)" stroke-width="19.6552" stroke-linecap="round" stroke-linejoin="round"/>
<path d="M29 174.881H121.53" stroke="url(#paint1_linear_25_201)" stroke-width="19.6552" stroke-linecap="round" stroke-linejoin="round"/>
<path d="M151.272 145.14C167.698 145.14 181.014 158.456 181.014 174.882C181.014 191.308 167.698 204.623 151.272 204.623C134.846 204.623 121.53 191.308 121.53 174.882C121.53 158.456 134.846 145.14 151.272 145.14Z" stroke="url(#paint2_linear_25_201)" stroke-width="19.6552" stroke-linecap="round" stroke-linejoin="round"/>
<path d="M68.6559 75.7419H29" stroke="url(#paint3_linear_25_201)" stroke-width="19.6552" stroke-linecap="round" stroke-linejoin="round"/>
<path d="M220.67 75.7419H128.14" stroke="url(#paint4_linear_25_201)" stroke-width="19.6552" stroke-linecap="round" stroke-linejoin="round"/>
<path d="M98.3977 46C114.824 46 128.14 59.3159 128.14 75.7419C128.14 92.1679 114.824 105.484 98.3977 105.484C81.9717 105.484 68.6558 92.1679 68.6558 75.7419C68.6558 59.3159 81.9717 46 98.3977 46Z" stroke="url(#paint5_linear_25_201)" stroke-width="19.6552" stroke-linecap="round" stroke-linejoin="round"/>
<defs>
<linearGradient id="paint0_linear_25_201" x1="57.5" y1="173.881" x2="200.842" y2="173.881" gradientUnits="userSpaceOnUse">
<stop stop-color="#2D74FF"/>
<stop offset="1" stop-color="#62CBF8"/>
</linearGradient>
<linearGradient id="paint1_linear_25_201" x1="-7.5" y1="175" x2="172" y2="175" gradientUnits="userSpaceOnUse">
<stop stop-color="#2D74FF"/>
<stop offset="1" stop-color="#62CBF8"/>
</linearGradient>
<linearGradient id="paint2_linear_25_201" x1="151.272" y1="204.623" x2="151.272" y2="145.14" gradientUnits="userSpaceOnUse">
<stop stop-color="#2D74FF"/>
<stop offset="1" stop-color="#62CBF8"/>
</linearGradient>
<linearGradient id="paint3_linear_25_201" x1="-29.5" y1="76" x2="198.5" y2="76.0001" gradientUnits="userSpaceOnUse">
<stop stop-color="#2D74FF"/>
<stop offset="1" stop-color="#62CBF8"/>
</linearGradient>
<linearGradient id="paint4_linear_25_201" x1="16.5" y1="75.9999" x2="174.405" y2="74.7418" gradientUnits="userSpaceOnUse">
<stop stop-color="#2D74FF"/>
<stop offset="1" stop-color="#62CBF8"/>
</linearGradient>
<linearGradient id="paint5_linear_25_201" x1="98.3977" y1="105.484" x2="98.3977" y2="46" gradientUnits="userSpaceOnUse">
<stop stop-color="#2D74FF"/>
<stop offset="1" stop-color="#62CBF8"/>
</linearGradient>
</defs>
</svg>
